<svg width="1000" height="1000" viewBox="0 0 1000 1000" fill="none" xmlns="http://www.w3.org/2000/svg">
<g filter="url(#filter0_d_3_2)">
<circle cx="500" cy="500" r="485" fill="white"/>
</g>
<path d="M228.367 456C223.434 456 220.967 453.533 220.967 448.6V330C220.967 325.067 223.434 322.6 228.367 322.6H275.167C287.101 322.6 296.201 325.767 302.467 332.1C308.734 338.367 311.867 347.467 311.867 359.4V365.4C311.867 377.333 308.734 386.433 302.467 392.7C296.201 398.967 287.101 402.1 275.167 402.1H235.667V448.6C235.667 453.533 233.234 456 228.367 456ZM235.667 387.4H275.167C283.034 387.4 288.667 385.7 292.067 382.3C295.467 378.9 297.167 373.267 297.167 365.4V359.4C297.167 351.533 295.467 345.9 292.067 342.5C288.667 339.033 283.034 337.3 275.167 337.3H235.667V387.4ZM347.508 456C342.574 456 340.108 453.533 340.108 448.6V330C340.108 325.067 342.574 322.6 347.508 322.6H420.308C425.241 322.6 427.708 325.067 427.708 330C427.708 334.867 425.241 337.3 420.308 337.3H354.808V381.3H396.708C401.641 381.3 404.108 383.733 404.108 388.6C404.108 393.533 401.641 396 396.708 396H354.808V441.3H420.308C425.241 441.3 427.708 443.733 427.708 448.6C427.708 453.533 425.241 456 420.308 456H347.508ZM497.681 456C495.281 456 493.448 455.4 492.181 454.2C490.915 452.933 490.281 451.1 490.281 448.7V337.4H450.281C447.881 337.4 446.048 336.8 444.781 335.6C443.515 334.333 442.881 332.5 442.881 330.1C442.881 327.7 443.515 325.867 444.781 324.6C446.048 323.333 447.881 322.7 450.281 322.7H545.081C547.481 322.7 549.281 323.333 550.481 324.6C551.748 325.867 552.381 327.7 552.381 330.1C552.381 332.5 551.748 334.333 550.481 335.6C549.281 336.8 547.481 337.4 545.081 337.4H504.981V448.7C504.981 450.967 504.348 452.767 503.081 454.1C501.815 455.367 500.015 456 497.681 456ZM585.008 456C580.074 456 577.608 453.533 577.608 448.6V330C577.608 325.067 580.074 322.6 585.008 322.6H657.808C662.741 322.6 665.208 325.067 665.208 330C665.208 334.867 662.741 337.3 657.808 337.3H592.308V381.3H634.208C639.141 381.3 641.608 383.733 641.608 388.6C641.608 393.533 639.141 396 634.208 396H592.308V441.3H657.808C662.741 441.3 665.208 443.733 665.208 448.6C665.208 453.533 662.741 456 657.808 456H585.008ZM782.581 456.3C780.648 457.567 778.815 457.967 777.081 457.5C775.348 457.033 773.848 455.833 772.581 453.9L740.981 402.1H710.081V448.6C710.081 453.533 707.648 456 702.781 456C697.848 456 695.381 453.533 695.381 448.6V330C695.381 325.067 697.848 322.6 702.781 322.6H749.581C761.515 322.6 770.615 325.767 776.881 332.1C783.148 338.367 786.281 347.467 786.281 359.4V365.4C786.281 375.8 783.848 384.067 778.981 390.2C774.181 396.333 767.181 400.1 757.981 401.5L785.281 446.3C787.615 450.433 786.715 453.767 782.581 456.3ZM710.081 387.4H749.581C757.448 387.4 763.081 385.7 766.481 382.3C769.881 378.9 771.581 373.267 771.581 365.4V359.4C771.581 351.533 769.881 345.9 766.481 342.5C763.081 339.033 757.448 337.3 749.581 337.3H710.081V387.4Z" fill="black"/>
<path d="M289.378 693C274.378 693 263.311 689.467 256.178 682.4C249.111 675.267 245.578 664.2 245.578 649.2V603.4C245.578 588.267 249.111 577.167 256.178 570.1C263.245 563.033 274.245 559.533 289.178 559.6H313.378C325.778 559.6 335.178 562.2 341.578 567.4C347.978 572.533 351.645 580.667 352.578 591.8C352.911 594.267 352.445 596.167 351.178 597.5C349.911 598.767 348.045 599.4 345.578 599.4C341.111 599.4 338.545 596.933 337.878 592C337.278 585.2 335.111 580.567 331.378 578.1C327.645 575.567 321.645 574.3 313.378 574.3H289.178C281.911 574.3 276.178 575.2 271.978 577C267.778 578.733 264.778 581.733 262.978 586C261.178 590.2 260.278 596 260.278 603.4V649.2C260.278 656.533 261.178 662.333 262.978 666.6C264.778 670.8 267.778 673.8 271.978 675.6C276.245 677.4 282.045 678.3 289.378 678.3H313.378C321.645 678.3 327.645 677.067 331.378 674.6C335.111 672.067 337.278 667.4 337.878 660.6C338.545 655.667 341.111 653.2 345.578 653.2C348.045 653.2 349.911 653.867 351.178 655.2C352.445 656.467 352.911 658.333 352.578 660.8C351.645 672 347.978 680.167 341.578 685.3C335.178 690.433 325.778 693 313.378 693H289.378ZM426.488 693C411.488 693 400.421 689.467 393.288 682.4C386.221 675.267 382.688 664.2 382.688 649.2V603.2C382.688 588.067 386.221 577 393.288 570C400.421 562.933 411.454 559.467 426.388 559.6H450.488C465.488 559.6 476.521 563.133 483.588 570.2C490.654 577.267 494.188 588.333 494.188 603.4V649.2C494.188 664.2 490.654 675.267 483.588 682.4C476.521 689.467 465.488 693 450.488 693H426.488ZM426.488 678.3H450.488C457.754 678.3 463.488 677.4 467.687 675.6C471.954 673.8 474.988 670.8 476.788 666.6C478.588 662.333 479.488 656.533 479.488 649.2V603.4C479.488 596.133 478.588 590.4 476.788 586.2C474.988 581.933 471.954 578.9 467.687 577.1C463.488 575.233 457.754 574.3 450.488 574.3H426.388C419.121 574.233 413.388 575.1 409.188 576.9C404.988 578.633 401.954 581.633 400.088 585.9C398.288 590.1 397.388 595.867 397.388 603.2V649.2C397.388 656.533 398.288 662.333 400.088 666.6C401.888 670.8 404.888 673.8 409.088 675.6C413.354 677.4 419.154 678.3 426.488 678.3ZM537.742 693C532.809 693 530.342 690.533 530.342 685.6V567C530.342 562.067 532.809 559.6 537.742 559.6H585.942C603.076 559.6 615.642 563.633 623.642 571.7C631.642 579.7 635.642 592.267 635.642 609.4V643.2C635.642 660.333 631.642 672.933 623.642 681C615.709 689 603.142 693 585.942 693H537.742ZM545.042 678.3H585.942C594.609 678.3 601.509 677.2 606.642 675C611.776 672.8 615.442 669.133 617.642 664C619.842 658.867 620.942 651.933 620.942 643.2V609.4C620.942 600.733 619.842 593.833 617.642 588.7C615.442 583.567 611.776 579.9 606.642 577.7C601.509 575.433 594.609 574.3 585.942 574.3H545.042V678.3ZM679.148 693C674.215 693 671.748 690.533 671.748 685.6V567C671.748 562.067 674.215 559.6 679.148 559.6H751.948C756.882 559.6 759.348 562.067 759.348 567C759.348 571.867 756.882 574.3 751.948 574.3H686.448V618.3H728.348C733.282 618.3 735.748 620.733 735.748 625.6C735.748 630.533 733.282 633 728.348 633H686.448V678.3H751.948C756.882 678.3 759.348 680.733 759.348 685.6C759.348 690.533 756.882 693 751.948 693H679.148Z" fill="#038800"/>
<defs>
<filter id="filter0_d_3_2" x="9" y="9" width="982" height="982" filterUnits="userSpaceOnUse" color-interpolation-filters="sRGB">
<feFlood flood-opacity="0" result="BackgroundImageFix"/>
<feColorMatrix in="SourceAlpha" type="matrix" values="0 0 0 0 0 0 0 0 0 0 0 0 0 0 0 0 0 0 127 0" result="hardAlpha"/>
<feMorphology radius="2" operator="dilate" in="SourceAlpha" result="effect1_dropShadow_3_2"/>
<feOffset/>
<feGaussianBlur stdDeviation="2"/>
<feComposite in2="hardAlpha" operator="out"/>
<feColorMatrix type="matrix" values="0 0 0 0 0 0 0 0 0 0 0 0 0 0 0 0 0 0 0.25 0"/>
<feBlend mode="normal" in2="BackgroundImageFix" result="effect1_dropShadow_3_2"/>
<feBlend mode="normal" in="SourceGraphic" in2="effect1_dropShadow_3_2" result="shape"/>
</filter>
</defs>
</svg>
